<?xml version="1.0" encoding="UTF-8"?><svg id="a" xmlns="http://www.w3.org/2000/svg" viewBox="0 0 88.42 54.07"><defs><style>.b{fill:#ff8aff;}</style></defs><path class="b" d="M42.39,36.03h-.91c-6.8,0-13.59-.02-20.39,.03-.86,0-1.33-.23-1.83-.92C12.93,26.57,6.57,18.03,.22,9.49c-.26-.35-.31-.57,0-.91C2.62,5.81,5.01,3.03,7.43,.27c.14-.16,.44-.26,.67-.26C15.28,0,22.46,0,29.63,.01c.24,0,.56,.13,.71,.31,2.32,2.75,4.62,5.52,6.93,8.27,.34,.4,.18,.64-.09,.97-1.63,1.96-3.24,3.94-4.85,5.91,.26,.64,.7,.85,1.39,.85,14.64-.02,29.28,0,43.92-.03,.78,0,1.31,.21,1.85,.76,2.86,2.91,5.75,5.77,8.65,8.64,.31,.31,.38,.53,.09,.9-6.95,8.99-13.9,17.98-20.84,26.98-.28,.36-.56,.49-1.02,.49-8.75-.01-17.5-.03-26.25,.02-.79,0-1.21-.24-1.66-.84-2-2.7-4.06-5.35-6.1-8.02-.53-.69-.51-.79,.17-1.32,3.06-2.43,6.12-4.86,9.18-7.29,.17-.13,.32-.27,.66-.56Zm-21.28-.86h.96c7.72,0,15.45,0,23.17,0,7.89,0,15.78,0,23.67,0,.23,0,.57,.11,.65,.27,.08,.16-.05,.5-.2,.67-2.22,2.74-4.44,5.47-6.69,8.19-.14,.17-.43,.3-.65,.3-3.48,.01-6.96-.01-10.44,.02-.41,0-.89,.2-1.21,.46-2.8,2.26-5.56,4.56-8.34,6.85-.45,.37-.89,.75-1.43,1.21,.29,.02,.43,.04,.56,.04,8.3,0,16.59,0,24.89,.01,.49,0,.73-.23,.98-.56,6.53-8.47,13.06-16.94,19.59-25.4,.13-.17,.25-.36,.42-.61-.22-.02-.31-.03-.4-.03-19.24,0-38.48,0-57.72,.02-.3,0-.67,.2-.89,.43-.63,.65-1.19,1.37-1.77,2.06-1.68,1.98-3.35,3.95-5.16,6.07ZM8.79,.87c.18,.26,.26,.38,.34,.49,6.26,7.93,12.52,15.85,18.77,23.78,.34,.44,.69,.61,1.24,.61,18.95-.01,37.91-.01,56.86-.01h.87c-.15-.19-.2-.26-.26-.33-2.65-2.65-5.29-5.3-7.95-7.92-.2-.2-.58-.32-.88-.32-14.95-.01-29.9,0-44.85-.01-.22,0-.51-.13-.65-.3-2.11-2.45-4.21-4.92-6.3-7.4-.13-.16-.28-.5-.21-.59,.13-.17,.42-.29,.65-.29,2.93-.02,5.86,0,8.8,0,.24,0,.49,0,.85,0-.25-.32-.39-.51-.54-.69-1.77-2.12-3.56-4.23-5.3-6.37-.4-.5-.82-.67-1.44-.67-6.37,.02-12.73,.01-19.1,.01h-.9Zm-.94,.25L.97,9.05l19.21,25.87c2.51-2.95,4.97-5.85,7.44-8.77L7.85,1.12Zm31.56,51.9c3.63-2.99,7.22-5.95,10.85-8.94l-6.78-7.81-10.48,8.33c2.15,2.82,4.26,5.6,6.41,8.42Zm22.23-9.27c-2.27-2.58-4.39-5.02-6.55-7.44-.17-.19-.54-.27-.82-.27-3.05-.02-6.1-.01-9.16,0-.18,0-.35,.03-.57,.04,.07,.13,.09,.19,.13,.24,2.06,2.38,4.11,4.76,6.19,7.12,.17,.19,.53,.29,.81,.3,1.79,.03,3.58,.01,5.36,.01,1.47,0,2.95,0,4.6,0Zm-5.6-7.68l6.35,7.23c1.97-2.41,3.91-4.77,5.92-7.23h-12.27ZM27.13,9.48l4.58,5.36,4.39-5.36h-8.97Z"/></svg>